<svg width="24" height="24" viewBox="0 0 24 24" fill="none" xmlns="http://www.w3.org/2000/svg">
<path d="M20 2H4C2.89543 2 2 2.89543 2 4V8C2 9.10457 2.89543 10 4 10H20C21.1046 10 22 9.10457 22 8V4C22 2.89543 21.1046 2 20 2Z" stroke="#FF6584" stroke-width="2" stroke-linecap="round" stroke-linejoin="round"/>
<path d="M17.3 14H3.7C2.76112 14 2 14.8954 2 16V20C2 21.1046 2.76112 22 3.7 22H17.3C18.2389 22 19 21.1046 19 20V16C19 14.8954 18.2389 14 17.3 14Z" stroke="#FF6584" stroke-width="2" stroke-linecap="round" stroke-linejoin="round"/>
<path d="M6 6H6.01" stroke="#FF6584" stroke-width="2" stroke-linecap="round" stroke-linejoin="round"/>
<path d="M6 18H6.01" stroke="#FF6584" stroke-width="2" stroke-linecap="round" stroke-linejoin="round"/>
</svg>
