<svg width="24" height="24" viewBox="0 0 24 24" fill="none" xmlns="http://www.w3.org/2000/svg">
<path d="M23.9962 22.2393L22.7082 11.9788C22.6829 11.7468 22.5062 11.5147 22.2789 11.4374L20.107 10.6382C19.905 11.0249 19.703 11.4374 19.5009 11.8241L21.4455 12.546L22.5567 21.3886L17.9352 19.8675L17.6069 14.6599C17.3796 14.7631 17.127 14.8146 16.8492 14.8146C16.6725 14.8146 16.4704 14.7888 16.3189 14.7373L16.6472 19.8933L12.6065 21.3886V12.4944L14.2228 11.8241L13.6167 10.6382L12.0004 11.3343L7.55572 9.45232C7.4042 9.40076 7.22742 9.37498 7.07589 9.42654L1.72202 11.4374C1.49473 11.5147 1.3432 11.721 1.2927 11.9788L0.00473515 22.2393C-0.020519 22.4714 0.0552434 22.6776 0.232022 22.8323C0.408801 22.987 0.636088 23.0127 0.838121 22.9612L6.62132 21.0534L11.7732 22.9612C11.9247 23.0127 12.0762 23.0127 12.2025 22.9612L17.3543 21.0534L23.1375 22.9612C23.2133 22.987 23.2638 22.987 23.3396 22.987C23.4911 22.987 23.6426 22.9354 23.7436 22.8323C23.9204 22.6776 24.0214 22.4714 23.9962 22.2393ZM6.04047 19.8675L1.41897 21.3886L2.53015 12.546L6.59606 11.0507L6.04047 19.8675ZM11.3438 21.3886L7.30318 19.8933L7.85877 11.0249L11.3438 12.4944V21.3886Z" fill="#FF6584"/>
<path d="M16.3953 13.1907C16.5973 13.6031 17.1782 13.6031 17.3802 13.1907C17.3802 13.1907 19.6783 8.60178 20.2087 7.51901C20.739 6.43624 20.7643 5.22457 20.2087 4.09023C19.2995 2.20827 17.0519 1.46065 15.2083 2.41452C13.3648 3.36839 12.6577 5.71439 13.5668 7.51901C14.476 9.32363 16.3953 13.1907 16.3953 13.1907ZM16.9004 4.06445C17.8853 4.06445 18.6682 4.86364 18.6682 5.86907C18.6682 6.8745 17.8853 7.67369 16.9004 7.67369C15.9155 7.67369 15.1326 6.8745 15.1326 5.86907C15.1326 4.88942 15.9155 4.06445 16.9004 4.06445Z" fill="#FF6584"/>
</svg>
