<svg width="30" height="30" viewBox="0 0 24 24" fill="none" xmlns="http://www.w3.org/2000/svg">
<path d="M3.0908 14.5033L3.06154 14.5141L3.03301 14.5266C2.55536 14.7363 2.07005 15.0652 1.67738 15.3404C1.77963 15.0944 1.86839 14.8328 1.94852 14.5835C2.07989 14.1748 2.2204 13.6871 2.37145 13.1627C2.42676 12.9708 2.48349 12.7739 2.54169 12.5741C2.98469 11.0541 3.54885 9.24519 4.38883 7.50258C6.06608 4.02301 8.7322 1 13.5596 1C15.2904 1 17.2645 1.73787 18.751 3.04022C20.2211 4.32825 21.1506 6.10542 20.9797 8.19536C20.7883 10.5352 20.1231 12.4352 19.0217 13.7342C17.9474 15.0014 16.3833 15.7877 14.1605 15.7928C11.9941 15.7978 10.2641 15.3132 8.64653 14.86C8.52635 14.8264 8.40678 14.7929 8.2877 14.7598C6.62368 14.2971 4.88246 13.8465 3.0908 14.5033Z" stroke="url(#paint0_linear)" stroke-width="2"/>
<path d="M16.3308 7.89469L16.3308 7.89469L16.3297 7.89936C16.1009 8.8839 15.3881 10.0063 14.5737 10.9413C14.1741 11.4001 13.7695 11.7914 13.4222 12.0761C13.2484 12.2185 13.0963 12.3283 12.9724 12.4052C12.9239 12.4354 12.8826 12.4587 12.8484 12.4762C12.7112 12.4062 12.4781 12.2516 12.1709 11.9898C11.8236 11.6939 11.4294 11.3024 11.0447 10.8515C10.2608 9.93269 9.58759 8.85124 9.36673 7.9007L9.36674 7.9007L9.36577 7.89662C9.32655 7.73202 9.3024 7.56435 9.29359 7.39562C9.29784 7.06482 9.40291 6.74178 9.59674 6.46856C9.79406 6.19043 10.0743 5.97681 10.4011 5.85829C10.728 5.73972 11.0844 5.72256 11.4218 5.80936C11.7591 5.89614 12.0596 6.08221 12.2839 6.34065L12.8505 6.9936L13.4169 6.34057C13.6408 6.08244 13.941 5.89659 14.2778 5.80991C14.6148 5.72322 14.9707 5.74035 15.2971 5.85878C15.6235 5.97716 15.9033 6.19053 16.1003 6.46831C16.2939 6.7413 16.3988 7.06407 16.4029 7.39457C16.3942 7.56301 16.3701 7.7304 16.3308 7.89469Z" stroke="url(#paint1_linear)" stroke-width="1.5"/>
<defs>
<linearGradient id="paint0_linear" x1="17.5645" y1="5.68256e-07" x2="8.93631" y2="18.9668" gradientUnits="userSpaceOnUse">
<stop stop-color="#B39FD9"/>
<stop offset="1" stop-color="#6C63FF"/>
</linearGradient>
<linearGradient id="paint1_linear" x1="15.4172" y1="5.00482" x2="10.6767" y2="13.424" gradientUnits="userSpaceOnUse">
<stop stop-color="#B39FD9"/>
<stop offset="1" stop-color="#6C63FF"/>
</linearGradient>
</defs>
</svg>
