<svg width="48" height="60" viewBox="0 0 48 60" fill="none" xmlns="http://www.w3.org/2000/svg">
<path d="M24.3176 58.2634C24.2009 58.3823 24.0932 58.4916 23.995 58.5908C22.0176 56.6261 16.9221 51.4376 12.0179 45.2461C9.16495 41.6442 6.39504 37.7256 4.34282 33.9224C2.27841 30.0966 1 26.4952 1 23.5C1 11.0933 11.2775 1 24 1C36.7225 1 47 11.0933 47 23.5C47 26.4805 45.6059 30.1983 43.3769 34.1911C41.1643 38.1543 38.2014 42.2632 35.219 45.9925C32.2397 49.7179 29.2578 53.0437 27.0193 55.4393C25.9006 56.6365 24.9689 57.6 24.3176 58.2634Z" fill="#3F3D56" stroke="white" stroke-width="2"/>
<path d="M19.194 18.228L15.89 24.598V28H13.93V24.598L10.612 18.228H12.824L14.924 22.694L17.01 18.228H19.194ZM23.7684 28.126C23.0218 28.126 22.3498 27.9627 21.7524 27.636C21.1551 27.3 20.6838 26.8287 20.3384 26.222C20.0024 25.6153 19.8344 24.9153 19.8344 24.122C19.8344 23.3287 20.0071 22.6287 20.3524 22.022C20.7071 21.4153 21.1878 20.9487 21.7944 20.622C22.4011 20.286 23.0778 20.118 23.8244 20.118C24.5711 20.118 25.2478 20.286 25.8544 20.622C26.4611 20.9487 26.9371 21.4153 27.2824 22.022C27.6371 22.6287 27.8144 23.3287 27.8144 24.122C27.8144 24.9153 27.6324 25.6153 27.2684 26.222C26.9138 26.8287 26.4284 27.3 25.8124 27.636C25.2058 27.9627 24.5244 28.126 23.7684 28.126ZM23.7684 26.418C24.1231 26.418 24.4544 26.334 24.7624 26.166C25.0798 25.9887 25.3318 25.7273 25.5184 25.382C25.7051 25.0367 25.7984 24.6167 25.7984 24.122C25.7984 23.3847 25.6024 22.82 25.2104 22.428C24.8278 22.0267 24.3564 21.826 23.7964 21.826C23.2364 21.826 22.7651 22.0267 22.3824 22.428C22.0091 22.82 21.8224 23.3847 21.8224 24.122C21.8224 24.8593 22.0044 25.4287 22.3684 25.83C22.7418 26.222 23.2084 26.418 23.7684 26.418ZM36.5742 20.244V28H34.6002V27.02C34.3482 27.356 34.0168 27.622 33.6062 27.818C33.2048 28.0047 32.7662 28.098 32.2902 28.098C31.6835 28.098 31.1468 27.972 30.6802 27.72C30.2135 27.4587 29.8448 27.0807 29.5742 26.586C29.3128 26.082 29.1822 25.4847 29.1822 24.794V20.244H31.1422V24.514C31.1422 25.13 31.2962 25.606 31.6042 25.942C31.9122 26.2687 32.3322 26.432 32.8642 26.432C33.4055 26.432 33.8302 26.2687 34.1382 25.942C34.4462 25.606 34.6002 25.13 34.6002 24.514V20.244H36.5742Z" fill="white"/>
</svg>
