<svg width="24" height="24" viewBox="0 0 24 24" fill="none" xmlns="http://www.w3.org/2000/svg">
<path d="M12.2041 10.5708V14H17.9915C17.7577 15.4708 16.2432 18.3117 12.2041 18.3117C8.72194 18.3117 5.8784 15.4875 5.8784 12C5.8784 8.5125 8.72279 5.68833 12.2041 5.68833C14.1854 5.68833 15.5128 6.5125 16.273 7.22917L19.04 4.61417C17.2628 2.98833 14.9583 2 12.2041 2C6.56207 2 2 6.47083 2 12C2 17.5292 6.56207 22 12.2041 22C18.0935 22 22 17.9425 22 12.2283C22 11.5717 21.9277 11.07 21.8393 10.5708H12.2041Z" fill="#6C63FF"/>
</svg>
